<svg xmlns="http://www.w3.org/2000/svg" viewBox="0 0 500 500"><path d="M24,227.27l10.59,1.28,2-16.67,5.5.67-2,16.67L55.17,231l-.75,6.18-36.7-4.43,3-24.64,5.56.72Z"/><path d="M65,185.78l-1.66,5.84L58,190.12c3.24,2.9,3.94,6.78,2.74,11.21-1.76,6.2-6.78,8.78-13.23,6.95L30.72,203.5l1.66-5.84L47.57,202c4.06,1.16,7.23-.52,8.34-4.43,1.22-4.71-1.6-8.47-6.33-9.82l-13.31-3.78,1.67-5.84Z"/><path d="M67.84,179.35,31.72,164.16l2.36-5.6L70.2,173.75Z"/><path d="M73.62,166.41,38.75,148.54l2.77-5.4L76.39,161Z"/><path d="M75.16,103.53l2.77,5.4a22,22,0,0,0-9.31,6.49C66.4,118.31,66,121,68,122.54c6.41,4.92,15.14-13.54,25.66-5.39,5.23,4,4.92,11.11,0,17.55a22.72,22.72,0,0,1-13.85,8.41l-2.63-5.42c5.08-.89,9.48-3.5,11.9-6.64,2.64-3.44,2.92-6.48.66-8.22-6.54-5-15.06,13.6-25.48,5.59-5-3.86-4.85-10.59,0-16.95A24.06,24.06,0,0,1,75.16,103.53Z"/><path d="M115.29,107.93a13.56,13.56,0,0,1-3.44,6.35c-3,3-7.28,3.85-11.35-.22L90.19,103.75l-2.8,2.81-3.21-3.22,2.8-2.8-5.46-5.45,4.26-4.26,5.45,5.46,5.87-5.87,3.21,3.21L94.45,99.5,104,109c2.06,2,3.48,1.9,4.82.56a9.82,9.82,0,0,0,2.13-3.85Z"/><path d="M130.19,93.91c-.07,3.19-1.87,6.13-5.08,8.62-4.8,3.72-10.1,3.09-13.14-.83s-2.11-9,3.2-13.18l6.72-5.22-.52-.66c-2.17-2.8-5.26-3.07-8.76-.35a14.8,14.8,0,0,0-4.81,7.33l-4.55-1.81c1.67-4.24,3.17-6.94,7.39-10.21,5.71-4.44,11.19-4,15,.84L137,93l-4.71,3.66Zm-4-5.06-1.58-2-6,4.66c-3.13,2.43-3.94,4.4-2.29,6.53s4.18,2,6.85,0C126.58,95.3,127.82,91.47,126.19,88.85Z"/><path d="M150.1,58l-1,5a10.68,10.68,0,0,0-8.55,1.19c-4.23,2.39-5.47,7.28-2.85,11.92s7.45,6.1,11.68,3.71c3.08-1.74,5-4.15,5.56-7l4.6,1.28c-.57,4.14-3.17,7.79-7.82,10.42-7.26,4.1-15.15,2-19.3-5.41s-2-15.32,5.28-19.42C142.14,57.21,146.4,56.68,150.1,58Z"/><path d="M168.47,67.43l2.82,7.35L165.62,77l-14-36.58,5.67-2.18,8.48,22.09,7.08-16.18,6.51-2.5L173.5,55.49l16.62,12.06-6.7,2.57L171.11,61Z"/><path d="M214.65,25.39c11-1.4,19.94,5.3,21.28,15.94s-5.7,19.35-16.8,20.75L204.25,64l-4.64-36.67Zm-4.92,32.24,9-1.14a12.4,12.4,0,0,0,11-14.32A12.61,12.61,0,0,0,215.25,31l-8.76,1.11Z"/><path d="M266.7,49.61l-21.2-1a8.54,8.54,0,0,0,8.38,7.41,10.9,10.9,0,0,0,8.06-2.91L265,56.72a15.2,15.2,0,0,1-11.82,4.22c-8.65-.39-14.08-6.4-13.7-14.84s6.5-14,14.84-13.65C264.18,32.9,267.9,39.52,266.7,49.61Zm-5.07-4.67c0-4.54-2.89-7.42-7.48-7.63-4.43-.2-7.67,2.45-8.56,6.9Z"/><path d="M275.24,63.09l-5.63-29.6,6.23,1.15,3.7,23.17,11.57-20.37,6,1.09L281.42,64.22Z"/><path d="M319.78,63.14,299.62,56.5a8.55,8.55,0,0,0,6.08,9.4,11,11,0,0,0,8.55-.63l2,4.27a15.32,15.32,0,0,1-12.52.87c-8.23-2.71-11.84-10-9.2-18s10-11.71,18-9.14C321.87,46.37,323.66,53.75,319.78,63.14Zm-3.62-5.86c1.22-4.38-.78-7.93-5.14-9.37s-8,.29-10.11,4.34Z"/><path d="M320.11,76.5l16.38-35.6L342,43.44,325.63,79Z"/><path d="M362.2,83.83c-4.41,7.21-12.53,9-19.92,4.54s-9.5-12.62-5.09-19.83,12.53-9.05,20-4.5S366.63,76.58,362.2,83.83ZM342.34,71.76c-2.83,4.64-1.74,9.64,2.58,12.28s9.23,1.31,12.07-3.33,1.72-9.6-2.57-12.21S345.15,67.16,342.34,71.76Z"/><path d="M389,106.69c-5.49,6.34-13.26,7.24-19.32,2-3.4-2.94-4.77-6.51-4.19-10.33l-9.89,11.41-4.59-4,25.11-29,4.59,4-3.19,3.68c3.71-1.13,7.44-.27,10.75,2.6C394.28,92.27,394.58,100.22,389,106.69Zm-4.49-4.18c3.42-4,3.27-9.18-.52-12.46s-9-2.73-12.41,1.26-3.34,9.26.45,12.55S381,106.59,384.49,102.51Z"/><path d="M406.84,131.38,393.21,115.1a8.55,8.55,0,0,0,.21,11.19,10.88,10.88,0,0,0,7.59,4l-.56,4.68a15.28,15.28,0,0,1-11.11-5.86c-5.56-6.64-4.8-14.71,1.68-20.13s14.69-4.66,20.09,1.7C417.45,118.22,415.09,125.44,406.84,131.38Zm0-6.9c3.35-3.08,3.52-7.15.57-10.67s-7-4-10.88-1.64Z"/><path d="M422.07,135.38a10.2,10.2,0,0,1,10.15,5l-4.88,3.14c-2.8-4.92-7.54-6.13-11.84-3.93l-12.34,8-3.29-5.1,23.62-15.23,3.29,5.1Z"/><path d="M420.27,173a3.33,3.33,0,1,1-2.77-6.05,3.33,3.33,0,1,1,2.77,6.05Z"/><path d="M462.79,206.51l-6-1.11a22.14,22.14,0,0,0,.59-11.34c-.93-3.53-2.86-5.48-5.26-4.85-7.81,2,1.42,20.26-11.46,23.57-6.39,1.67-11.79-2.92-13.85-10.79a22.72,22.72,0,0,1,1.85-16.09l5.9,1.24c-2.41,4.56-3,9.64-2,13.47,1.09,4.19,3.33,6.28,6.09,5.56,8-2.08-1.52-20.23,11.2-23.56C456,181,461.17,185.27,463.2,193A24.08,24.08,0,0,1,462.79,206.51Z"/><path d="M447.69,244.62c-8.41.81-14.77-4.56-15.61-13.19s4.36-15.17,12.77-16,14.77,4.56,15.61,13.23S456.15,243.79,447.69,244.62Zm-2.3-23.13c-5.42.53-8.76,4.41-8.27,9.45s4.51,8.16,9.93,7.64,8.7-4.41,8.21-9.4S450.75,221,445.39,221.49Z"/><path d="M463.43,257.75l-3.33-.08-.17,7.34-4.54-.1.17-7.34-22.49-.52.14-6,22.49.52.09-3.69,4.54.1-.09,3.7,2.75.06c6.54.15,9.55,5,9.43,9.88a10.72,10.72,0,0,1-2.09,6.3l-4.6-2.44a6.78,6.78,0,0,0,1.41-3.82A3.51,3.51,0,0,0,463.43,257.75Z"/><path d="M432.45,282.63a13.47,13.47,0,0,1-1.22-7.11c.5-4.2,3.35-7.52,9.07-6.84l14.47,1.74.47-3.93,4.51.54-.47,3.93,7.65.92-.72,6-7.65-.92-1,8.23-4.51-.54,1-8.23-13.37-1.61c-2.89-.34-3.91.65-4.14,2.54a9.88,9.88,0,0,0,.71,4.34Z"/><path d="M423.47,310.46l22-1-18-12.71,1.76-6,29.87-2-1.76,6-23.23.77,19.19,13-1.77,6-23.19.62,19.16,13.11-1.75,5.93L421.7,316.5Z"/><path d="M413.08,342.56c-1.3-2.92-.92-6.34.92-10,2.76-5.41,7.82-7.1,12.25-4.85S432,335,429,341l-3.86,7.58.76.38c3.15,1.61,6.06.54,8.07-3.41a14.78,14.78,0,0,0,1.23-8.68l4.89-.3c.29,4.54.08,7.63-2.34,12.38-3.28,6.45-8.42,8.4-13.95,5.64l-16.45-8.31L410,341Zm5.77,2.87,2.3,1.18,3.45-6.78c1.8-3.53,1.69-5.65-.7-6.88s-4.66-.05-6.19,3C415.75,339.77,416.26,343.76,418.85,345.43Z"/><path d="M419.24,368.81a10.21,10.21,0,0,1-.64,11.3l-4.81-3.26c3.43-4.5,2.69-9.34-1-12.43l-12.15-8.23,3.41-5,23.25,15.76-3.4,5Z"/><path d="M386.07,392.78l14-16a8.54,8.54,0,0,0-11,1.93,10.91,10.91,0,0,0-2.76,8.11l-4.71.16a15.29,15.29,0,0,1,4.09-11.87c5.7-6.51,13.79-7,20.15-1.44s6.86,13.81,1.4,20.12C400.7,401.25,393.21,400,386.07,392.78Zm6.82-1c3.55,2.84,7.6,2.38,10.63-1.07s2.87-7.53,0-11Z"/><path d="M374.93,434.52c-7.53,5.45-14.54,4.86-19.25-1.64-4.9-6.76-3.43-13.82,4.1-19.27l6.89-5-6.54-9,5.05-3.65,21.68,29.94Zm-5-21.37L363.28,418c-4.62,3.35-5.8,7.21-2.86,11.27s6.82,3.93,11.44.58l6.67-4.83Z"/><path d="M343.46,437a10.23,10.23,0,0,1-5.83,9.71l-2.74-5.12c5.13-2.39,6.73-7,4.88-11.48l-6.93-12.94,5.36-2.87,13.25,24.77L346.1,442Z"/><path d="M302,445.56c-3-7.9.53-15.45,8.64-18.51s15.78.24,18.77,8.15-.54,15.44-8.69,18.52S305,453.51,302,445.56Zm21.71-8.27c-1.92-5.08-6.54-7.29-11.28-5.5s-6.7,6.49-4.77,11.57,6.52,7.25,11.21,5.47S325.58,442.33,323.68,437.29Z"/><path d="M286.79,433.71c-1.61-6.46,2.11-10.54,6.46-11.63a9.93,9.93,0,0,1,6.15.43l-.81,5a6.46,6.46,0,0,0-3.79-.36c-1.79.45-3,1.88-2.3,4.5l7.13,28.59-5.84,1.46Zm8.23,36a3.72,3.72,0,1,1,4.53,2.68A3.58,3.58,0,0,1,295,469.7Z"/><path d="M257.12,451.16l21-2.82a8.54,8.54,0,0,0-9.56-5.8,10.91,10.91,0,0,0-7.42,4.29l-3.65-3a15.26,15.26,0,0,1,10.89-6.25c8.58-1.15,15,3.8,16.12,12.17s-3.92,14.91-12.18,16.07C262.57,467.16,257.74,461.3,257.12,451.16Zm5.83,3.69c.81,4.48,4.16,6.8,8.71,6.19,4.39-.59,7.11-3.78,7.2-8.32Z"/><path d="M228.43,462.9l3.39-3.86a10.59,10.59,0,0,0,8,3.3c4.86.08,8.4-3.51,8.49-8.84s-3.34-9-8.2-9.11c-3.54-.06-6.41,1.06-8.34,3.25l-3.33-3.44c2.59-3.28,6.69-5.12,12-5,8.34.13,14,6,13.92,14.43s-6,14.21-14.38,14.08C234.9,467.6,231,465.9,228.43,462.9Z"/><path d="M208.34,438.19a13.42,13.42,0,0,1,7.14-1.12c4.18.57,7.47,3.46,6.7,9.17l-2,14.44,3.92.53-.6,4.5-3.93-.53-1,7.64-6-.8,1-7.64-8.21-1.11.6-4.5,8.22,1.11,1.8-13.35c.39-2.88-.59-3.92-2.47-4.17a9.74,9.74,0,0,0-4.35.64Z"/><path d="M162.39,421.67l-9.94,25.76,19.47-17.93,3.79,1.47L178,457.35l10-25.75,5.47,2.12-13.37,34.46-6.9-2.67L170.7,438.2l-20.21,18.5L143.65,454,157,419.59Z"/><path d="M136,410.1c3-1,6.39-.34,9.83,1.83,5.14,3.24,6.35,8.44,3.71,12.64s-7.74,5-13.49,1.48l-7.19-4.53-.45.71c-1.89,3-1.09,6,2.66,8.36a14.89,14.89,0,0,0,8.53,2l-.15,4.9c-4.55-.12-7.61-.62-12.12-3.46-6.12-3.86-7.58-9.16-4.33-14.41L132.8,404l5,3.19Zm-3.39,5.48-1.38,2.18,6.43,4.06c3.35,2.11,5.47,2.21,6.91-.07s.48-4.63-2.37-6.43C138.55,413,134.53,413.16,132.63,415.58Z"/><path d="M96.81,396.33l11.54-13.13,4.56,4-10.42,11.86c-2.79,3.18-2.59,6.79.58,9.58,3.53,3,7.84,2.53,11.05-.49L124,396.93l4.56,4L110,422.05l-4.56-4L109,414c-4.09,1.61-7.9.51-11.47-2.62C92.61,407.05,92.39,401.37,96.81,396.33Z"/><path d="M91.45,368.49c3.19,0,6.18,1.67,8.77,4.8,3.88,4.67,3.42,10-.4,13.16s-8.92,2.39-13.28-2.78l-5.43-6.54-.65.54c-2.72,2.26-2.9,5.35-.06,8.77A14.76,14.76,0,0,0,87.88,391l-1.67,4.61c-4.28-1.53-7-2.95-10.44-7.05-4.62-5.57-4.37-11.06.36-15.05l14.15-11.8,3.81,4.59Zm-4.93,4.16-2,1.65,4.85,5.85c2.53,3.05,4.52,3.8,6.6,2.08s1.89-4.25-.26-6.85C93,372.05,89.08,370.93,86.52,372.65Z"/><path d="M71.85,337c6.94-4.14,14.24-1.78,18.76,5.79a20.47,20.47,0,0,1,2.79,11.92l-5.09,0a14.14,14.14,0,0,0-1.88-9.14c-2.73-4.59-7.19-6-11.36-3.5l-3,1.81c3.61.07,6.68,1.92,8.85,5.56,3.89,6.53,1.76,13.7-5.18,17.83s-14,2.5-17.86-3.87c-2.26-3.7-2.41-7.36-.78-10.6l-3.9,2.32L50.07,350Zm-7.27,11.33c-4.35,2.6-5.69,7.27-3.26,11.35s7.25,5.15,11.59,2.63,5.74-7.29,3.25-11.47S68.94,345.77,64.58,348.36Z"/><path d="M51.79,312l7.89,19.71A8.55,8.55,0,0,0,63,321a10.86,10.86,0,0,0-6-6.13l2-4.27a15.31,15.31,0,0,1,8.73,9c3.22,8,0,15.47-7.85,18.61s-15.42-.14-18.57-7.87C37.61,321.16,42.1,315,51.79,312Zm-2.15,6.55c-4.14,1.89-5.57,5.7-3.87,10,1.65,4.12,5.41,6,9.83,4.94Z"/><path d="M38.58,303.41a10.22,10.22,0,0,1-8.07-7.94L36.13,294c1.12,5.55,5.24,8.19,10,7.43l14.21-3.7,1.53,5.88L34.69,310.7l-1.53-5.88Z"/><path d="M52,268.26a3.34,3.34,0,1,1,.74,6.62,3.33,3.33,0,1,1-.74-6.62Z"/></svg>